<?xml version="1.0" standalone="no"?>
<svg
  width="600"
  height="600"
  viewBox="0 0 600 600"
  xmlns="http://www.w3.org/2000/svg"
>
  <g transform="translate(300,300)">
    <path d="M124.2,-150.2C163.6,-115,200,-78.3,221.5,-28.4C243,21.5,249.7,84.8,220.9,121C192.2,157.2,128.1,166.5,68.4,188.3C8.8,210.2,-46.4,244.6,-97.9,238.9C-149.4,233.2,-197.3,187.4,-222.3,133.4C-247.4,79.5,-249.8,17.5,-231.1,-32.5C-212.4,-82.5,-172.7,-120.5,-130.7,-155.3C-88.7,-190,-44.4,-221.5,-1,-220.4C42.4,-219.2,84.8,-185.5,124.2,-150.2Z" fill="#2660a4" />
  </g>
</svg>
    