<?xml version="1.0" standalone="no"?>
<svg
  width="600"
  height="600"
  viewBox="0 0 600 600"
  xmlns="http://www.w3.org/2000/svg"
>
  <g transform="translate(300,300)">
    <path d="M135.5,-186.3C175.8,-184.9,208.9,-147.7,206.9,-107.6C204.9,-67.4,167.8,-24.3,135.4,1C103,26.3,75.3,33.8,65.6,71.9C56,110,64.3,178.8,52.6,184.9C40.9,190.9,9,134.3,-21.1,108.7C-51.2,83,-79.7,88.3,-88.1,77.1C-96.5,65.9,-84.9,38.2,-100,7.5C-115.2,-23.3,-157.2,-57.1,-165.9,-91.4C-174.6,-125.7,-150,-160.4,-116.8,-165.1C-83.6,-169.8,-41.8,-144.4,2.9,-148.9C47.6,-153.4,95.2,-187.7,135.5,-186.3Z" fill="#586a78" />
  </g>
</svg>
    