<?xml version="1.0" standalone="no"?>
<svg
  width="600"
  height="600"
  viewBox="0 0 600 600"
  xmlns="http://www.w3.org/2000/svg"
>
  <g transform="translate(300,300)">
    <path d="M127.9,-205.3C153.1,-182.8,152,-125.9,173.7,-79.1C195.4,-32.4,239.7,4.2,228,27.4C216.3,50.6,148.6,60.3,115.2,101C81.8,141.7,82.7,213.3,61.1,229.3C39.5,245.3,-4.6,205.7,-55.5,190.1C-106.3,174.6,-163.9,183.2,-177.7,158.7C-191.5,134.2,-161.6,76.6,-162.4,27.4C-163.3,-21.9,-194.9,-62.6,-196.2,-102C-197.5,-141.3,-168.5,-179.2,-130.7,-195.9C-93,-212.7,-46.5,-208.3,2.4,-212.1C51.4,-215.9,102.7,-227.8,127.9,-205.3Z" fill="#be6e46" />
  </g>
</svg>
    