<?xml version="1.0" standalone="no"?>
<svg
  width="600"
  height="600"
  viewBox="0 0 600 600"
  xmlns="http://www.w3.org/2000/svg"
>
  <g transform="translate(300,300)">
    <path d="M44.8,-77.4C56.5,-62.3,63.3,-47.1,90.8,-29.1C118.3,-11,166.5,9.9,182.7,39.4C198.9,68.8,182.9,106.8,150.7,113.6C118.4,120.5,69.8,96.2,35.7,93.4C1.6,90.5,-17.9,109.1,-54.1,125.3C-90.2,141.6,-143,155.6,-163.1,138.1C-183.3,120.7,-170.8,71.7,-165,31.2C-159.2,-9.3,-160.1,-41.4,-159.3,-85C-158.5,-128.7,-156,-183.8,-129.2,-192C-102.4,-200.3,-51.2,-161.6,-17.3,-134.7C16.6,-107.8,33.2,-92.6,44.8,-77.4Z" fill="#eab0a2" />
  </g>
</svg>
    