<?xml version="1.0" standalone="no"?>
<svg
  width="600"
  height="600"
  viewBox="0 0 600 600"
  xmlns="http://www.w3.org/2000/svg"
>
  <g transform="translate(300,300)">
    <path d="M78.2,-120.6C115.4,-97.9,169.1,-99.8,191.8,-79.1C214.6,-58.4,206.3,-15,187.5,17.9C168.8,50.8,139.5,73.2,119.1,111.2C98.6,149.1,86.9,202.7,62.2,208.3C37.5,214,-0.3,171.7,-48,159.5C-95.6,147.3,-153.2,165,-159.8,145.2C-166.3,125.5,-121.8,68.3,-109.5,27.4C-97.3,-13.5,-117.3,-38.1,-126.3,-74C-135.4,-110,-133.4,-157.2,-110.5,-186.4C-87.6,-215.6,-43.8,-226.8,-11.6,-208.7C20.5,-190.6,41.1,-143.3,78.2,-120.6Z" fill="#009465" />
  </g>
</svg>
    