<?xml version="1.0" standalone="no"?>
<svg
  width="1200"
  height="9 00"
  viewBox="0 0 900 900"
  xmlns="http://www.w3.org/2000/svg"
>
  <g transform="translate(300,300)">
    <path d="M139.2,-186.6C183.6,-159.4,224.9,-122.9,245.6,-75.9C266.3,-28.8,266.3,28.8,242.9,72.1C219.5,115.4,172.6,144.3,128.2,178.3C83.9,212.4,41.9,251.7,-8.1,262.9C-58.2,274.1,-116.4,257.2,-159.5,222.7C-202.6,188.2,-230.6,136.1,-241,83.3C-251.4,30.4,-244.1,-23.3,-230.2,-77.5C-216.3,-131.7,-195.7,-186.4,-156.2,-215.2C-116.8,-244.1,-58.4,-247,-5.5,-239.5C47.4,-231.9,94.8,-213.9,139.2,-186.6Z" fill="#F6E27F" />
  </g>
</svg>
    